<svg width="600" height="600" viewBox="0 0 600 600" fill="none" xmlns="http://www.w3.org/2000/svg">
<rect x="53" y="50" width="494.939" height="500" rx="41" fill="#FAF9F6" stroke="#1E1E1E" stroke-width="17"/>
<path d="M53 379L548 379" stroke="black" stroke-width="17"/>
<path d="M141.56 508C141.56 501.856 141.56 495.712 141.56 489.568C141.56 483.424 141.56 477.28 141.56 471.136C141.56 464.992 141.56 458.848 141.56 452.704C141.56 446.56 141.56 440.416 141.56 434.272C141.56 430.517 141.56 426.805 141.56 423.136C141.56 419.381 141.56 415.669 141.56 412H194.68C194.68 420.277 194.68 428.555 194.68 436.832C194.68 445.024 194.68 453.259 194.68 461.536C194.68 466.656 194.68 471.819 194.68 477.024C194.68 482.144 194.68 487.307 194.68 492.512C194.68 497.632 194.68 502.795 194.68 508H141.56ZM271.49 508L252.93 460C254.637 455.989 256.301 451.979 257.922 447.968C259.543 443.957 261.165 439.989 262.786 436.064C264.493 432.053 266.157 428.043 267.778 424.032C269.485 420.021 271.149 416.011 272.77 412H330.37C328.919 414.987 327.213 418.443 325.25 422.368C323.287 426.293 321.282 430.261 319.234 434.272C317.271 438.283 315.437 441.995 313.73 445.408C312.023 448.821 310.615 451.595 309.506 453.728C308.482 455.776 307.97 456.8 307.97 456.8C307.97 456.8 308.525 458.037 309.634 460.512C310.743 462.901 312.194 466.059 313.986 469.984C315.778 473.909 317.741 478.176 319.874 482.784C322.007 487.307 324.098 491.787 326.146 496.224C328.194 500.661 330.029 504.587 331.65 508H271.49ZM199.81 508C199.81 501.771 199.81 495.541 199.81 489.312C199.81 482.997 199.81 476.725 199.81 470.496C199.81 464.267 199.81 458.037 199.81 451.808C199.81 445.493 199.81 439.221 199.81 432.992C199.81 429.493 199.81 425.995 199.81 422.496C199.81 418.997 199.81 415.499 199.81 412H252.93C252.93 415.925 252.93 419.851 252.93 423.776C252.93 427.701 252.93 431.627 252.93 435.552C252.93 439.477 252.93 443.403 252.93 447.328C252.93 451.253 252.93 455.179 252.93 459.104C252.93 459.189 252.93 459.317 252.93 459.488C252.93 459.659 252.93 459.829 252.93 460C252.93 460.085 252.93 460.171 252.93 460.256C252.93 460.341 252.93 460.469 252.93 460.64C252.93 460.725 252.93 460.811 252.93 460.896C252.93 468.747 252.93 476.597 252.93 484.448C252.93 492.299 252.93 500.149 252.93 508H199.81ZM334.06 412H387.18C387.18 421.301 387.18 430.005 387.18 438.112C387.18 446.219 387.18 454.325 387.18 462.432C387.18 463.712 387.436 464.821 387.948 465.76C388.545 466.699 389.271 467.509 390.124 468.192C391.063 468.789 392.087 469.259 393.196 469.6C394.391 469.941 395.585 470.112 396.78 470.112C399.255 470.112 401.473 469.472 403.436 468.192C405.399 466.912 406.38 465.035 406.38 462.56C406.38 458.464 406.38 454.411 406.38 450.4C406.38 446.389 406.38 442.336 406.38 438.24C406.38 434.144 406.38 429.92 406.38 425.568C406.38 421.216 406.38 416.693 406.38 412H459.5C459.5 418.485 459.5 425.141 459.5 431.968C459.5 438.795 459.5 445.664 459.5 452.576C459.5 459.403 459.5 466.059 459.5 472.544C459.5 479.115 457.708 484.875 454.124 489.824C450.625 494.688 445.889 498.784 439.916 502.112C433.943 505.355 427.201 507.787 419.692 509.408C412.268 511.029 404.631 511.84 396.78 511.84C390.551 511.84 384.364 511.328 378.22 510.304C372.161 509.28 366.444 507.701 361.068 505.568C355.777 503.435 351.084 500.832 346.988 497.76C342.977 494.603 339.82 490.933 337.516 486.752C335.212 482.485 334.06 477.749 334.06 472.544C334.06 469.301 334.06 465.973 334.06 462.56C334.06 459.061 334.06 455.605 334.06 452.192C334.06 447.669 334.06 443.147 334.06 438.624C334.06 434.101 334.06 429.621 334.06 425.184C334.06 420.661 334.06 416.267 334.06 412Z" fill="black"/>
<mask id="mask0_1_23" style="mask-type:alpha" maskUnits="userSpaceOnUse" x="44" y="41" width="513" height="518">
<rect x="53" y="50" width="494.939" height="500" rx="41" fill="#FAF9F6" stroke="#1E1E1E" stroke-width="17"/>
</mask>
<g mask="url(#mask0_1_23)">
<path d="M24 143H578" stroke="#E41E21" stroke-width="50"/>
<path d="M24 192H578" stroke="#F09C1C" stroke-width="50"/>
<path d="M24 241H578" stroke="#0C85EC" stroke-width="50"/>
<path d="M24 290H578" stroke="#3EB081" stroke-width="50"/>
<rect x="53" y="50" width="494.939" height="500" rx="41" stroke="#1E1E1E" stroke-width="17"/>
</g>
</svg>
